<?xml version="1.0" standalone="no"?>
<!DOCTYPE svg PUBLIC "-//W3C//DTD SVG 20010904//EN"
 "http://www.w3.org/TR/2001/REC-SVG-20010904/DTD/svg10.dtd">
<svg version="1.0" xmlns="http://www.w3.org/2000/svg"
 width="512.000000pt" height="512.000000pt" viewBox="0 0 512.000000 512.000000"
 preserveAspectRatio="xMidYMid meet">
<metadata>
Created by potrace 1.11, written by Peter Selinger 2001-2013
</metadata>
<g transform="translate(0.000000,512.000000) scale(0.100000,-0.100000)"
fill="#000000" stroke="none">
<path d="M2480 5098 c-19 -13 -45 -39 -57 -57 -22 -33 -23 -41 -23 -283 0
-278 4 -297 63 -342 69 -53 174 -36 227 35 l25 34 0 267 c0 254 -1 268 -21
294 -34 46 -68 65 -125 71 -45 4 -60 1 -89 -19z"/>
<path d="M807 4406 c-56 -20 -107 -89 -107 -143 0 -63 22 -93 197 -267 198
-197 217 -210 301 -187 58 15 79 34 104 89 22 49 17 111 -12 152 -30 41 -326
333 -353 347 -40 20 -88 24 -130 9z"/>
<path d="M4202 4406 c-40 -14 -355 -324 -382 -376 -35 -68 -8 -165 57 -203 40
-23 109 -28 148 -12 42 18 356 337 377 383 20 42 16 100 -9 142 -35 60 -122
90 -191 66z"/>
<path d="M2431 4049 c-507 -46 -942 -330 -1189 -780 -225 -410 -235 -937 -25
-1364 89 -180 233 -365 373 -480 194 -159 248 -232 301 -415 19 -67 22 -104
26 -355 2 -154 8 -304 13 -334 22 -123 94 -223 202 -282 l63 -34 360 0 360 0
58 27 c73 34 98 54 146 115 40 51 69 115 76 166 2 18 4 161 5 318 1 245 4 297
20 362 40 159 116 269 285 412 281 238 460 543 525 894 16 86 19 139 16 286
-4 186 -5 193 -37 334 -94 405 -390 777 -774 971 -97 49 -263 111 -335 124
-14 3 -50 10 -80 16 -104 20 -275 29 -389 19z"/>
<path d="M95 2706 c-124 -55 -123 -240 2 -292 49 -21 497 -20 546 1 109 45
124 206 26 276 -34 24 -38 24 -289 26 -198 2 -262 0 -285 -11z"/>
<path d="M4474 2705 c-17 -7 -43 -30 -59 -51 -23 -30 -29 -48 -29 -89 0 -68
27 -114 84 -142 42 -22 55 -23 282 -23 268 0 287 4 334 65 23 31 28 48 29 96
0 62 -16 94 -69 133 -26 20 -42 21 -284 23 -201 2 -264 -1 -288 -12z"/>
<path d="M1115 1312 c-32 -7 -52 -24 -219 -190 -101 -100 -165 -172 -177 -199
-58 -126 76 -264 204 -209 49 20 373 350 388 393 39 119 -70 234 -196 205z"/>
<path d="M3919 1311 c-66 -21 -118 -85 -114 -141 1 -14 2 -38 3 -54 2 -23 37
-64 170 -198 92 -93 179 -179 194 -189 15 -11 46 -21 70 -23 118 -11 209 112
160 217 -16 35 -296 326 -353 368 -31 22 -93 32 -130 20z"/>
</g>
</svg>
